<?xml version="1.0" standalone="no"?>
<!DOCTYPE svg PUBLIC "-//W3C//DTD SVG 20010904//EN"
 "http://www.w3.org/TR/2001/REC-SVG-20010904/DTD/svg10.dtd">
<svg version="1.0" xmlns="http://www.w3.org/2000/svg"
 width="900.000000pt" height="657.000000pt" viewBox="0 0 900.000000 657.000000"
 preserveAspectRatio="xMidYMid meet">
<metadata>
Created by potrace 1.10, written by Peter Selinger 2001-2011
</metadata>
<g transform="translate(0.000000,657.000000) scale(0.100000,-0.100000)"
fill="#a9e5ea" stroke="none">
<path d="M3107 5343 c-2 -1 -45 -5 -96 -7 -60 -4 -102 -11 -117 -21 -13 -8
-30 -15 -39 -15 -34 0 -175 -88 -236 -147 -42 -40 -139 -181 -139 -201 0 -6
-9 -29 -21 -51 -11 -22 -18 -45 -14 -50 3 -6 -1 -21 -10 -34 -14 -22 -16 -179
-15 -1542 0 -1330 2 -1521 15 -1541 8 -13 12 -30 9 -38 -3 -9 3 -31 15 -49 12
-19 21 -40 21 -46 0 -23 99 -167 147 -212 49 -47 189 -139 212 -139 7 0 25 -7
41 -15 16 -8 60 -18 97 -22 122 -13 3002 -10 3058 4 113 26 222 86 317 175 53
49 135 166 144 206 4 15 13 34 20 42 7 9 21 45 31 80 17 61 18 156 18 1555 0
1399 -1 1494 -18 1555 -10 35 -24 71 -32 80 -8 9 -15 26 -15 37 0 11 -13 39
-30 61 -16 23 -30 45 -30 49 0 5 -26 36 -58 70 -102 109 -262 198 -376 210
-58 5 -2894 12 -2899 6z m2953 -96 c19 -13 53 -28 75 -34 85 -21 238 -170 290
-280 12 -28 28 -54 34 -58 7 -4 9 -15 6 -25 -3 -10 3 -44 15 -76 20 -58 20
-75 20 -1502 0 -1284 -2 -1446 -15 -1473 -9 -16 -17 -49 -19 -72 -1 -23 -9
-53 -19 -67 -9 -14 -23 -41 -31 -60 -8 -19 -35 -59 -59 -87 -25 -29 -47 -56
-49 -61 -6 -15 -137 -112 -152 -112 -8 0 -18 -4 -21 -10 -3 -5 -15 -10 -26
-10 -11 0 -32 -8 -46 -17 -26 -17 -118 -18 -1573 -18 -1452 0 -1547 1 -1571
17 -14 10 -45 24 -70 31 -42 13 -189 111 -189 127 0 4 -18 30 -40 56 -23 27
-50 69 -61 94 -11 24 -27 52 -35 62 -9 9 -13 22 -9 28 3 5 -1 36 -11 68 -15
52 -17 174 -17 1502 0 1364 1 1449 18 1520 25 101 64 179 129 259 57 70 169
155 220 167 16 4 48 17 70 30 l41 24 1530 0 1530 0 35 -23z"/>
<path d="M3725 4679 c-27 -5 -62 -16 -77 -24 -14 -8 -34 -15 -43 -15 -18 0
-100 -44 -171 -92 -94 -63 -188 -170 -221 -251 -14 -34 -28 -66 -32 -72 -4 -5
-18 -41 -32 -80 -20 -61 -23 -89 -23 -210 -1 -147 15 -223 65 -316 10 -20 19
-43 19 -51 0 -8 12 -32 28 -53 41 -58 207 -225 223 -225 8 0 31 -12 52 -26 34
-23 121 -58 172 -69 218 -48 389 -26 568 76 39 22 80 49 92 59 43 39 145 145
145 152 0 3 20 37 45 75 25 37 45 74 45 81 0 7 8 29 19 50 33 66 47 221 30
347 -11 85 -68 257 -90 271 -5 3 -16 20 -24 37 -9 18 -21 41 -28 52 -15 25
-124 126 -163 151 -16 10 -35 27 -42 36 -7 10 -21 18 -31 18 -10 0 -30 9 -44
20 -14 11 -30 20 -36 20 -6 0 -43 11 -83 24 -61 20 -93 24 -193 24 -66 0 -142
-4 -170 -9z m315 -65 c55 -9 146 -51 235 -110 88 -58 216 -209 232 -273 3 -14
10 -31 15 -37 24 -32 40 -127 42 -252 3 -136 -7 -200 -38 -260 -9 -17 -16 -36
-16 -42 0 -21 -112 -179 -150 -212 -56 -50 -136 -105 -162 -113 -13 -4 -34
-15 -48 -25 -20 -14 -83 -30 -135 -35 -5 0 -38 -7 -73 -14 -52 -11 -73 -12
-119 -1 -31 7 -70 14 -87 15 -113 12 -261 90 -350 183 -43 46 -102 131 -126
182 -12 25 -29 58 -37 75 -16 31 -43 226 -37 266 2 13 8 62 15 109 14 97 69
217 141 304 119 145 303 240 483 249 61 3 168 -2 215 -9z"/>
<path d="M3805 4549 c-130 -12 -261 -74 -357 -170 -50 -51 -128 -156 -128
-175 0 -4 -8 -25 -19 -48 -81 -177 -48 -430 77 -586 73 -91 182 -190 210 -190
4 0 23 -8 42 -18 19 -11 77 -29 129 -42 96 -22 139 -23 226 -1 22 6 54 13 70
17 37 8 155 62 175 80 8 8 29 25 47 39 48 39 126 141 167 220 30 59 38 85 45
165 13 139 -4 273 -43 345 -9 17 -16 34 -16 38 0 13 -89 127 -130 168 -42 42
-186 129 -213 129 -10 0 -28 6 -40 12 -28 16 -153 25 -242 17z m245 -66 c25
-12 56 -24 70 -29 124 -36 283 -229 319 -385 25 -108 9 -283 -34 -366 -8 -15
-15 -32 -15 -37 0 -14 -72 -105 -118 -151 -56 -56 -95 -84 -134 -97 -18 -6
-37 -14 -43 -18 -13 -10 -94 -33 -120 -35 -11 -1 -37 -5 -57 -9 -43 -8 -195
16 -248 40 -102 46 -130 64 -185 119 -33 33 -71 78 -85 100 -13 22 -27 42 -30
45 -4 3 -9 14 -13 25 -3 11 -13 39 -21 63 -39 105 -39 289 0 364 8 15 14 35
14 45 0 23 93 158 139 200 42 39 142 97 220 128 79 31 274 30 341 -2z"/>
<path d="M3829 4354 c-6 -8 -8 -35 -3 -73 6 -57 5 -61 -13 -61 -29 0 -95 -29
-114 -49 -49 -52 -61 -117 -31 -174 24 -48 130 -107 191 -107 43 0 99 -31 106
-58 5 -20 0 -30 -22 -48 -34 -28 -56 -29 -108 -4 -22 11 -45 19 -51 20 -6 0
-30 14 -53 31 -32 23 -46 28 -56 19 -12 -10 -45 -96 -45 -118 0 -14 76 -52
104 -52 13 0 40 -7 60 -15 l37 -16 -6 -54 c-4 -30 -3 -55 1 -56 50 -6 92 -5
107 3 16 8 18 17 12 57 -8 56 0 65 64 80 24 5 47 13 50 18 57 67 71 93 71 136
0 25 -5 49 -11 52 -5 4 -14 17 -19 30 -11 28 -116 79 -184 89 -67 10 -110 36
-114 69 -4 33 25 42 100 34 53 -7 138 -42 138 -58 0 -25 33 -4 46 29 8 20 20
47 26 59 14 29 4 53 -24 53 -13 0 -33 6 -44 14 -11 8 -38 16 -60 18 l-39 3 3
62 c2 41 -1 64 -10 69 -21 13 -97 12 -109 -2z m81 -175 c7 -11 10 -23 7 -25
-7 -7 -102 -22 -110 -17 -12 7 14 34 48 49 40 18 43 17 55 -7z"/>
<path d="M5138 4363 l-33 -34 -3 -1159 -2 -1160 22 -5 c13 -3 174 -4 358 -3
l335 3 0 1171 c0 1364 15 1217 -121 1207 -58 -4 -88 -2 -98 6 -10 9 -72 11
-220 10 l-205 -2 -33 -34z m535 -46 l68 -2 0 -1125 c-1 -1068 -2 -1125 -18
-1123 -10 1 -136 3 -280 3 -145 0 -263 4 -263 8 -3 203 1 2235 4 2240 4 6 306
6 489 -1z"/>
<path d="M4650 3534 c-6 -14 -10 -29 -10 -34 0 -20 -172 -240 -188 -240 -4 0
-27 -19 -52 -41 -25 -22 -64 -49 -86 -59 -23 -10 -60 -30 -83 -44 l-41 -26 2
-543 3 -542 344 -3 c237 -1 348 1 357 9 10 9 13 149 13 741 -1 662 -2 734 -17
757 -29 46 -42 50 -140 51 -90 0 -93 -1 -102 -26z m180 -59 c12 -14 8 -1374
-4 -1393 -5 -9 -84 -12 -292 -12 l-284 0 0 482 c0 481 0 482 22 505 12 13 28
23 36 23 8 0 31 14 52 30 21 17 43 30 50 30 19 0 199 180 223 223 12 21 29 52
38 68 30 53 37 57 94 57 30 0 59 -6 65 -13z"/>
<path d="M3262 3015 c-4 -5 -5 -235 -2 -510 l5 -500 356 -3 357 -2 -2 510 -1
511 -353 2 c-227 1 -356 -2 -360 -8z m648 -500 l0 -445 -287 0 -288 0 1 438
c1 240 2 440 3 445 0 4 129 7 286 7 l285 0 0 -445z"/>
</g>
</svg>
